<svg fill="none" height="632" viewBox="0 0 598 632" width="598" xmlns="http://www.w3.org/2000/svg" xmlns:xlink="http://www.w3.org/1999/xlink"><radialGradient id="a" cx="0" cy="0" gradientTransform="matrix(1064.73 0 0 1063.98 973.802 -22.0176)" gradientUnits="userSpaceOnUse" r="1"><stop offset="0" stop-color="#2c2b78"/><stop offset="1" stop-color="#151245"/></radialGradient><linearGradient id="b" gradientUnits="userSpaceOnUse" x1="-36.3082" x2="423.267" y1="807.521" y2="341.416"><stop offset="0" stop-color="#495aa8" stop-opacity="0"/><stop offset=".2" stop-color="#5258a7" stop-opacity=".01"/><stop offset=".5" stop-color="#6c56a4" stop-opacity=".16"/><stop offset=".9" stop-color="#9451a0" stop-opacity=".81"/><stop offset="1" stop-color="#9e51a0"/></linearGradient><linearGradient id="c"><stop offset="0" stop-color="#3cb1e5" stop-opacity=".1"/><stop offset="1" stop-color="#3c9bd6"/></linearGradient><linearGradient id="d" gradientUnits="userSpaceOnUse" x1="-263.777" x2="195.798" xlink:href="#c" y1="313.829" y2="-152.586"/><linearGradient id="e" gradientUnits="userSpaceOnUse" x1="-119.786" x2="233.74" y1="220.487" y2="569.606"><stop offset="0" stop-color="#f6a51b" stop-opacity="0"/><stop offset=".2" stop-color="#f6a819" stop-opacity="0"/><stop offset=".4" stop-color="#f7ad16" stop-opacity=".04"/><stop offset=".5" stop-color="#f8b512" stop-opacity=".09"/><stop offset=".7" stop-color="#fabf0d" stop-opacity=".25"/><stop offset=".8" stop-color="#fbcb07" stop-opacity=".49"/><stop offset="1" stop-color="#fed900"/></linearGradient><linearGradient id="f" gradientUnits="userSpaceOnUse" x1="660.106" x2="113.988" y1="389.392" y2="-145.886"><stop offset="0" stop-color="#ee2b7a" stop-opacity="0"/><stop offset="1" stop-color="#f68c2b"/></linearGradient><linearGradient id="g" gradientUnits="userSpaceOnUse" x1="402.23" x2="789.722" xlink:href="#c" y1="234.28" y2="-161.495"/><linearGradient id="h"><stop offset="0" stop-color="#191748"/><stop offset=".1" stop-color="#4f4c73"/><stop offset=".2" stop-color="#7e7c98"/><stop offset=".4" stop-color="#a5a4b8"/><stop offset=".5" stop-color="#c6c5d1"/><stop offset=".6" stop-color="#dfdee5"/><stop offset=".7" stop-color="#f0f0f3"/><stop offset=".8" stop-color="#fbfbfc"/><stop offset="1" stop-color="#fff"/></linearGradient><radialGradient id="i" cx="0" cy="0" gradientTransform="matrix(52.7554 0 0 52.7183 621.272 220.487)" gradientUnits="userSpaceOnUse" r="1" xlink:href="#h"/><linearGradient id="j" gradientUnits="userSpaceOnUse" x1="586.205" x2="641.712" y1="179.863" y2="239.132"><stop offset="0" stop-color="#f6a41c"/><stop offset=".3" stop-color="#f6a919"/><stop offset=".6" stop-color="#f9b910"/><stop offset=".9" stop-color="#fdd303"/><stop offset="1" stop-color="#fed900"/></linearGradient><radialGradient id="k" cx="0" cy="0" gradientTransform="matrix(47.1695 0 0 47.1364 298.533 96.4436)" gradientUnits="userSpaceOnUse" r="1" xlink:href="#h"/><linearGradient id="l" gradientUnits="userSpaceOnUse" x1="266.88" x2="317.115" y1="59.8508" y2="113.225"><stop offset="0" stop-color="#495aa8"/><stop offset=".3" stop-color="#5b58a6"/><stop offset=".8" stop-color="#8a53a1"/><stop offset="1" stop-color="#9e51a0"/></linearGradient><radialGradient id="m" cx="0" cy="0" gradientTransform="matrix(31.6532 0 0 31.631 140.267 285.609)" gradientUnits="userSpaceOnUse" r="1" xlink:href="#h"/><linearGradient id="n"><stop offset="0" stop-color="#fed900"/><stop offset="1" stop-color="#f6a41c"/></linearGradient><linearGradient id="o" gradientUnits="userSpaceOnUse" x1="119.165" x2="152.655" xlink:href="#n" y1="261.111" y2="296.797"/><linearGradient id="p" gradientUnits="userSpaceOnUse" x1="356.564" x2="648.27" xlink:href="#n" y1="294.603" y2="294.603"/><linearGradient id="q" gradientUnits="userSpaceOnUse" x1="251.053" x2="251.053" xlink:href="#n" y1="663.631" y2="372.13"/><linearGradient id="r" gradientUnits="userSpaceOnUse" x1="642.064" x2="642.064" xlink:href="#n" y1="127.144" y2="-164.357"/><mask id="s" height="632" maskUnits="userSpaceOnUse" width="1125" x="0" y="0"><path d="m0 632h1124.62v-632h-1124.62z" fill="#fff"/></mask><g mask="url(#s)"><path d="m-.00012207 632h1124.62012207v-632h-1124.62012207z" fill="url(#a)"/><path d="m427.629 340.809c-67.341-67.294-176.265-67.294-243.606 0l-219.4002 219.556c-67.3408 67.294-67.3408 176.141 0 243.435 67.3407 67.293 176.2652 67.293 243.6062 0l219.4-219.247c67.341-67.293 67.341-176.141 0-243.434zm-299.775 382.673c-22.964 22.948-60.203 22.948-83.1672 0-22.9641-22.948-22.9641-60.161 0-83.109l219.4002-219.246c22.964-22.948 60.203-22.948 83.167 0 22.965 22.948 22.965 60.161 0 83.109z" fill="url(#b)"/><path d="m200.16-152.883c-67.341-67.294-176.2649-67.294-243.6056 0l-219.7104 219.2461c-67.341 67.2939-67.341 176.1409 0 243.4349 67.34 67.293 176.2647 67.293 243.6054 0l219.7106-219.2464c67.341-67.2935 67.341-176.1414 0-243.4346zm-300.0849 382.673c-22.9641 22.948-60.2031 22.948-83.1671 0s-22.964-60.161 0-83.109l219.7104-219.2462c22.9641-22.948 60.2032-22.948 83.1676 0 22.964 22.948 22.964 60.1609 0 83.1089z" fill="url(#d)"/><path d="m234.296 572.459c50.893-50.857 50.893-133.656 0-184.824l-166.645-166.528c-50.8935-50.858-133.7504-50.858-184.954 0-50.894 50.858-50.894 133.656 0 184.824l166.6447 166.528c50.8933 50.858 133.7503 50.858 184.9543 0zm-290.465-227.309c-17.3783-17.366-17.3783-45.586 0-62.952 17.3782-17.366 45.6179-17.366 62.9961 0l166.6449 166.528c17.378 17.366 17.378 45.586 0 62.952s-45.618 17.366-62.996 0z" fill="url(#e)"/><path d="m157.025-48.687c-76.961 76.9068-76.3404 201.88 1.241 279.407l252.916 252.738c77.581 77.527 202.642 77.837 279.603 1.241 76.961-76.907 76.34-201.881-1.241-279.408l-252.916-252.7375c-77.581-77.5275-202.642-77.8375-279.603-1.2405zm440.662 345.46c26.378 26.359 26.688 69.154.311 95.203-26.068 26.05-68.893 26.05-95.27-.31l-252.916-252.738c-26.377-26.359-26.688-69.1537-.31-95.2028 26.067-26.049 68.892-26.0491 95.27.3101z" fill="url(#f)"/><path d="m782.331-158.775c-55.548-55.51-146.474-55.199-202.332.93l-183.092 182.9637c-56.169 56.1296-56.48 146.6813-.931 202.1903 55.548 55.509 146.473 55.199 202.332-.93l183.092-182.9639c56.169-56.1295 56.48-146.6811.931-202.1901zm-250.433 319.101c-19.24 19.227-49.962 19.227-68.892 0s-18.93-49.928 0-68.8442l183.092-182.9636c19.24-19.2272 49.963-19.2272 68.893 0 18.929 18.9165 18.929 49.9273 0 68.8439z" fill="url(#g)"/><path d="m621.272 273.515c29.136 0 52.755-23.603 52.755-52.718 0-29.116-23.619-52.718-52.755-52.718s-52.755 23.602-52.755 52.718c0 29.115 23.619 52.718 52.755 52.718z" fill="url(#i)"/><path d="m615.997 253.978c23.308 0 42.204-18.882 42.204-42.174 0-23.293-18.896-42.175-42.204-42.175-23.309 0-42.205 18.882-42.205 42.175 0 23.292 18.896 42.174 42.205 42.174z" fill="url(#j)"/><path d="m298.533 143.89c26.051 0 47.17-21.104 47.17-47.1363 0-26.0327-21.119-47.1364-47.17-47.1364s-47.169 21.1037-47.169 47.1364c0 26.0323 21.118 47.1363 47.169 47.1363z" fill="url(#k)"/><path d="m293.878 126.834c21.081 0 38.171-17.077 38.171-38.1431 0-21.066-17.09-38.1433-38.171-38.1433-21.08 0-38.17 17.0773-38.17 38.1433 0 21.0661 17.09 38.1431 38.17 38.1431z" fill="url(#l)"/><path d="m140.267 317.551c17.482 0 31.653-14.162 31.653-31.631 0-17.47-14.171-31.631-31.653-31.631-17.481 0-31.653 14.161-31.653 31.631 0 17.469 14.172 31.631 31.653 31.631z" fill="url(#m)"/><path d="m137.164 305.766c14.054 0 25.447-11.384 25.447-25.428s-11.393-25.429-25.447-25.429-25.447 11.385-25.447 25.429 11.393 25.428 25.447 25.428z" fill="url(#o)"/><g stroke-linecap="round" stroke-linejoin="round"><path d="m358.116 150.402 288.603 288.401" stroke="url(#p)"/><path d="m106.752 662.081 288.603-288.401" stroke="url(#q)"/><path d="m497.762 125.594 288.603-288.401" stroke="url(#r)"/></g></g></svg>